<svg
    xmlns="http://www.w3.org/2000/svg"
    xmlns:xlink="http://www.w3.org/1999/xlink" viewBox="0 0 32 32" width="90" height="90">
    <path d="M4 24h10v2H4z" fill="rgba(255,255,255,1)" stroke="rgba(255,255,255,1)" stroke-width="1.4"></path>
    <path d="M4 18h10v2H4z" fill="rgba(255,255,255,1)" stroke="rgba(255,255,255,1)" stroke-width="1.4"></path>
    <path d="M26 14H6a2 2 0 0 1-2-2V6a2 2 0 0 1 2-2h20a2 2 0 0 1 2 2v6a2 2 0 0 1-2 2zM6 6v6h20V6z" fill="rgba(255,255,255,1)" stroke="rgba(255,255,255,1)" stroke-width="1.4"></path>
    <path d="M26 28h-6a2 2 0 0 1-2-2v-6a2 2 0 0 1 2-2h6a2 2 0 0 1 2 2v6a2 2 0 0 1-2 2zm-6-8v6h6v-6z" fill="rgba(255,255,255,1)" stroke="rgba(255,255,255,1)" stroke-width="1.4"></path>
</svg>
